<?xml version="1.0" encoding="UTF-8"?>
<!-- (c) Carrd Inc. All rights reserved. All logos and trademarks are property of their respective owners. -->
<svg xmlns="http://www.w3.org/2000/svg" version="1.1" xmlns:xlink="http://www.w3.org/1999/xlink" viewBox="0 0 40 40" display="none" width="0" height="0">
	<symbol id="globe" viewBox="0 0 40 40"><path d="M20,3C10.6,3,3,10.6,3,20s7.6,17,17,17s17-7.6,17-17S29.4,3,20,3z M34.8,18.9h-6.2c-0.1-2.2-0.3-4.2-0.8-6.1 c1.5-0.4,3-0.9,4.2-1.5c0.6,0.9,1.2,1.8,1.6,2.9C34.3,15.7,34.7,17.3,34.8,18.9z M25.7,26.7c-1.5-0.3-3.1-0.4-4.6-0.5v-5.1h5.4 c-0.1,1.8-0.3,3.5-0.6,5.1C25.8,26.3,25.8,26.5,25.7,26.7z M14.2,26.2c-0.3-1.6-0.6-3.3-0.6-5.1h5.4v5.1c-1.6,0-3.2,0.2-4.6,0.5 C14.2,26.5,14.2,26.3,14.2,26.2z M14.3,13.3c1.5,0.3,3.1,0.4,4.6,0.5v5.1h-5.4c0.1-1.8,0.3-3.5,0.6-5.1 C14.2,13.7,14.2,13.5,14.3,13.3z M21.1,5.4C21.4,5.6,21.7,5.7,22,6c0.8,0.7,1.6,1.7,2.2,3c0.4,0.7,0.7,1.5,0.9,2.3 c-1.3,0.2-2.7,0.4-4,0.4V5.4z M18,6c0.3-0.3,0.6-0.4,0.9-0.6v6.2c-1.4,0-2.8-0.2-4-0.4c0.3-0.8,0.6-1.6,0.9-2.3 C16.5,7.7,17.2,6.7,18,6z M18.9,28.4v6.2c-0.3-0.1-0.6-0.3-0.9-0.6c-0.8-0.7-1.6-1.7-2.2-3c-0.4-0.7-0.7-1.5-0.9-2.3 C16.2,28.6,17.5,28.4,18.9,28.4z M22,34c-0.3,0.3-0.6,0.4-0.9,0.6v-6.2c1.4,0,2.8,0.2,4,0.4c-0.3,0.8-0.6,1.6-0.9,2.3 C23.5,32.3,22.8,33.3,22,34z M21.1,18.9v-5.1c1.6,0,3.2-0.2,4.6-0.5c0,0.2,0.1,0.4,0.1,0.5c0.3,1.6,0.6,3.3,0.6,5.1H21.1z M30.5,9.5 c0,0,0.1,0.1,0.1,0.1c-1,0.4-2.2,0.8-3.4,1.1c-0.6-1.9-1.4-3.5-2.4-4.8c0.3,0.1,0.6,0.2,0.9,0.3C27.5,7.1,29.1,8.1,30.5,9.5z M14.2,6.3c0.3-0.1,0.6-0.2,0.9-0.3c-0.9,1.3-1.7,2.9-2.4,4.8c-1.2-0.3-2.3-0.7-3.4-1.1c0,0,0.1-0.1,0.1-0.1 C10.9,8.1,12.5,7.1,14.2,6.3z M7.9,11.4c1.3,0.6,2.7,1.1,4.2,1.5c-0.4,1.9-0.7,3.9-0.8,6.1H5.2c0.1-1.6,0.5-3.2,1.1-4.7 C6.8,13.2,7.3,12.3,7.9,11.4z M5.2,21.1h6.2c0.1,2.2,0.3,4.2,0.8,6.1c-1.5,0.4-3,0.9-4.2,1.5c-0.6-0.9-1.2-1.8-1.6-2.9 C5.7,24.3,5.3,22.7,5.2,21.1z M9.5,30.5c0,0-0.1-0.1-0.1-0.1c1-0.4,2.2-0.8,3.4-1.1c0.6,1.9,1.4,3.5,2.4,4.8 c-0.3-0.1-0.6-0.2-0.9-0.3C12.5,32.9,10.9,31.9,9.5,30.5z M25.8,33.7c-0.3,0.1-0.6,0.2-0.9,0.3c0.9-1.3,1.7-2.9,2.4-4.8 c1.2,0.3,2.3,0.7,3.4,1.1c0,0-0.1,0.1-0.1,0.1C29.1,31.9,27.5,32.9,25.8,33.7z M32.1,28.6c-1.3-0.6-2.7-1.1-4.2-1.5 c0.4-1.9,0.7-3.9,0.8-6.1h6.2c-0.1,1.6-0.5,3.2-1.1,4.7C33.2,26.8,32.7,27.7,32.1,28.6z"/></symbol>
	<symbol id="information" viewBox="0 0 40 40"><path d="M26.1,34.7c.6,0,1,.5,1,1v1.5c0,.6-.5,1-1,1h-12.2c-.6,0-1-.5-1-1v-1.5c0-.6.5-1,1-1h1.5V16h-1.5c-.6,0-1-.5-1-1v-.5c0-.6.5-1,1-1h12.2c.6,0,1,.5,1,1v.5c0,.6-.5,1-1,1h-1.5v18.8h1.5ZM23,9.8h-6.1c-.8,0-1.5-.7-1.5-1.5V3.2c0-.8.7-1.5,1.5-1.5h6.1c.8,0,1.5.7,1.5,1.5v5.1c0,.8-.7,1.5-1.5,1.5Z" /></symbol>
	<symbol id="play" viewBox="0 0 40 40"><path d="M36.1,21.3c1.5-0.7,1.5-1.9,0-2.6L10.5,6.3C9,5.6,7.8,6.2,7.8,7.6l0,24.8c0,1.4,1.2,2,2.7,1.3L36.1,21.3z"/></symbol>
	<symbol id="media-play" viewBox="0 0 40 40"><path d="M8.4,33.5c0,0.9,1.4,1.8,2.2,1.8s1.7-0.2,2.2-0.7l22-12.8c0.5-0.5,0.7-1.1,0.7-1.8c0-0.7-0.2-1.3-0.7-1.8l-22-12.8 c-0.5-0.5-1.3-0.7-2.2-0.7S8.5,5.6,8.4,6.5V33.5z"/></symbol>
	<symbol id="document" viewBox="0 0 40 40"><path d="M24.5,13.6V5.8c0.2,0.2,0.4,0.3,0.6,0.5l6.8,6.8c0.2,0.2,0.3,0.4,0.5,0.6L24.5,13.6L24.5,13.6z M22.3,14.2 c0,0.4,0.2,0.8,0.5,1.1c0.3,0.3,0.7,0.5,1.1,0.5h9v17.5c0,0.4-0.2,0.8-0.5,1.1c-0.3,0.3-0.7,0.5-1.1,0.5H9.1c-0.4,0-0.8-0.2-1.1-0.5 c-0.3-0.3-0.5-0.7-0.5-1.1V6.7c0-0.4,0.2-0.8,0.5-1.1c0.3-0.3,0.7-0.5,1.1-0.5h13.3L22.3,14.2L22.3,14.2z"/></symbol>
	<symbol id="refresh" viewBox="0 0 40 40"><path d="M38,21.1c-.1,2.8-1.2,5.8-2.6,8.2-6.3,10.2-19.6,11.5-28.2,3.4,0,0,0-.1,0-.2l-2.4,2.3c-.6.3-1.1,0-1.2-.7.1-2.4-.2-4.9,0-7.2,0-.7.3-1.1,1-1.1,2.4-.2,5.1.2,7.5,0,.6,0,.9.6.6,1.1l-2.8,2.8c2.2,2.2,5,3.6,8.1,4.1,7.8,1.2,15.3-4.4,16.2-12.3,0-.5,0-1,0-1.5,0-.3.3-.7.6-.7.5,0,2,0,2.5,0,.9.1.8,1.1.8,1.8ZM36.4,13.2c0,.6-.4.8-1,.9-2.4.2-4.9-.1-7.3,0-.7,0-1.1-.6-.7-1.2l2.8-2.8c-.3-.2-.5-.5-.8-.7-5.3-4.7-13.6-4.7-18.9,0-2.8,2.6-4.3,5.9-4.6,9.7,0,.5.1,1.1-.5,1.3-.4.1-2,.1-2.4,0-.6,0-1-.3-1-1,.1-5.9,3.2-11.5,8.1-14.7C17.2.3,27.1,1.3,33,7.4l2.4-2.3c.6-.3,1,0,1.1.7.2,2.4-.2,5,0,7.4Z" /></symbol>
	<symbol id="hackaday" viewBox="0 0 40 40"><path d="M7,4.1c-0.4,0-0.8,0.1-1.2,0.2l2.8,2.5l-3.1,3.5L2.7,7.7C2.6,8,2.6,8.3,2.6,8.6C2.6,11,4.6,13,7,13c0.5,0,0.9-0.1,1.3-0.2 L12,16c0.7-1.5,1.7-2.7,2.9-3.7l-3.5-3.1c0-0.2,0-0.4,0-0.7v0C11.4,6.1,9.5,4.1,7,4.1L7,4.1z M28.3,24.2c-0.6,1.5-1.5,2.9-2.6,3.9 l2.9,2.6c0,0.2-0.1,0.5-0.1,0.7c0,2.4,2,4.4,4.4,4.4c0.4,0,0.9-0.1,1.3-0.2l-2.9-2.6l3.1-3.4l2.9,2.6c0-0.3,0.1-0.5,0.1-0.8v0 c0-2.4-2-4.4-4.4-4.4c-0.4,0-0.9,0.1-1.3,0.2L28.3,24.2L28.3,24.2z"/> <path d="M33,4.1c-2.4,0-4.4,2-4.4,4.4v0c0,0.2,0,0.4,0,0.7l-3.5,3.1c1.2,0.9,2.2,2.2,2.9,3.7l3.6-3.2c0.4,0.1,0.9,0.2,1.3,0.2 c2.4,0,4.4-2,4.4-4.4c0-0.3,0-0.6-0.1-0.9l-2.8,2.5l-3.1-3.5l2.8-2.5C33.8,4.2,33.4,4.1,33,4.1L33,4.1z M11.7,24.2l-3.3,3 C7.9,27.1,7.5,27,7,27c-2.4,0-4.4,2-4.4,4.4v0c0,0.3,0,0.5,0.1,0.8l2.9-2.6l3.1,3.4l-2.9,2.6c0.4,0.1,0.8,0.2,1.3,0.2 c2.4,0,4.4-2,4.4-4.4c0-0.2,0-0.5-0.1-0.7l2.9-2.6C13.1,27.1,12.2,25.7,11.7,24.2L11.7,24.2z"/> <path d="M20,11.3c-4.6,0-8.3,4.1-8.3,9.2c0,3.1,1.4,5.9,3.6,7.6c-0.1,0.2-0.2,0.5-0.2,0.8c0,0.9,0.7,1.6,1.6,1.6s1.6-0.7,1.6-1.6 c0-0.1,0-0.1,0-0.2h0.2c0,0.1,0,0.2,0,0.2c0,0.9,0.7,1.6,1.6,1.6s1.6-0.7,1.6-1.6c0-0.1,0-0.2,0-0.2h0.3c0,0.1,0,0.2,0,0.2 c0,0.9,0.7,1.6,1.6,1.6c0.9,0,1.6-0.7,1.6-1.6c0-0.3-0.1-0.6-0.3-0.9c2.2-1.7,3.6-4.4,3.6-7.6C28.3,15.4,24.6,11.3,20,11.3L20,11.3z M16.4,18.1c0.5,0,0.9,0.1,1.3,0.4c0.3,0.2,0.6,0.6,0.8,1c0.2,0.5-0.1,1-0.4,1.3c-0.3,0.2-0.6,0.4-0.9,0.5c-0.4,0.1-0.8,0.3-1.2,0.5 c-0.2,0.1-0.3,0.3-0.4,0.5c-0.1,0.2,0,0.5-0.2,0.7c-0.2,0.2-0.5,0-0.6-0.2c-0.4-0.3-0.7-0.7-0.8-1.1C14,21.3,14,20.9,14,20.5 c0-0.5,0.2-0.9,0.5-1.3c0.3-0.5,0.8-0.9,1.4-0.9C16.1,18.2,16.3,18.1,16.4,18.1L16.4,18.1z M23.6,18.1c0.2,0,0.3,0,0.5,0.1 c0.6,0.1,1.1,0.5,1.4,0.9c0.3,0.4,0.5,0.8,0.5,1.3c0,0.4,0,0.8-0.1,1.2c-0.1,0.5-0.4,0.8-0.8,1.1c-0.2,0.1-0.4,0.3-0.6,0.2 c-0.1-0.2,0-0.5-0.2-0.7c0-0.2-0.2-0.4-0.4-0.5c-0.4-0.2-0.8-0.4-1.2-0.5c-0.3-0.1-0.6-0.3-0.9-0.5c-0.4-0.3-0.6-0.8-0.4-1.3 c0.2-0.4,0.5-0.7,0.8-1C22.6,18.3,23.1,18.1,23.6,18.1L23.6,18.1z M20,22.9c0.4,0,0.9,1.9,0.8,2.6c-0.4,1.1-0.3-0.7-0.8-0.7 c-0.5,0-0.6,1.8-0.8,0.7C19.1,24.7,19.6,22.8,20,22.9z"/></symbol>
	<symbol id="cancel" viewBox="0 0 40 40"><path d="M32.3,11.5l-8.5,8.5,8.5,8.5c.4.4.4,1,0,1.3l-2.5,2.5c-.4.4-1,.4-1.3,0l-8.5-8.5-8.5,8.5c-.4.4-1,.4-1.3,0l-2.5-2.5c-.4-.4-.4-1,0-1.3l8.5-8.5L7.7,11.5c-.4-.4-.4-1,0-1.3l2.5-2.5c.4-.4,1-.4,1.3,0l8.5,8.5,8.5-8.5c.4-.4,1-.4,1.3,0l2.5,2.5c.4.4.4,1,0,1.3Z" /></symbol>
	<symbol id="mobile" viewBox="0 0 40 40"><path d="M25.9,38.5h-11.8c-2.8,0-5-2.2-5-5V6.5c0-2.8,2.2-5,5-5h11.8c2.8,0,5,2.2,5,5v27c0,2.8-2.2,5-5,5ZM28.5,6.5c0-1.4-1.2-2.6-2.6-2.6h-11.8c-1.4,0-2.6,1.2-2.6,2.6v27c0,1.4,1.2,2.6,2.6,2.6h11.8c1.4,0,2.6-1.2,2.6-2.6V6.5ZM23.5,8.3h-6.9c-.5,0-.9-.4-.9-.9s.4-.9.9-.9h6.9c.5,0,.9.4.9.9s-.4.9-.9.9Z" /></symbol>
	<symbol id="airchat" viewBox="0 0 40 40"><path class="cls-1" d="M38.5,20.4c-.1,5-2,9.4-5.6,12.9-3.6,3.5-7.9,5.2-13,5.2-5.1,0-9.6-1.9-13.2-5.7-3.6-3.7-5.3-8.3-5.1-13.4.2-5,2.1-9.3,5.7-12.8C11,3,15.6,1.3,20.9,1.5c4.8.2,8.9,2,12.2,5.4,3.7,3.7,5.5,8.3,5.4,13.5ZM31.8,8.2c-3-3-6.7-4.7-11-4.9-4.7-.2-8.9,1.3-12.3,4.6-3.2,3.1-5,7-5.1,11.5-.2,4.7,1.4,8.7,4.6,12.1,3.3,3.4,7.3,5.1,11.9,5.2,4.6,0,8.5-1.6,11.7-4.7,3.3-3.2,5-7.1,5.1-11.6.1-4.7-1.5-8.8-4.9-12.2ZM30.8,26.5c-.4,1.1-.9,2-1.6,2.9-.4.5-.9,1-1.3,1.4-.7.7-1.5,1.2-2.4,1.6-.9.4-1.9.8-3,.9-.4,0-.9.1-1.3.1-.3,0-.6,0-.9,0-1.3,0-2.6-.2-3.9-.7-1.1-.4-2.1-.9-3-1.5-.6-.4-1.1-.9-1.6-1.4-.7-.7-1.3-1.6-1.8-2.5-.3-.7-.6-1.5-.7-2.3,0-.5-.1-1-.1-1.4,0-.5,0-1,0-1.5,0-1,.2-2.1.4-3.1,0-.4.2-.8.3-1.2,0-.2.4-.4.6-.4h9.9c3.3,0,6.6,0,9.9,0,.1,0,.2,0,.3.1.3.2.4.6.4,1,.1.7.3,1.3.4,2,0,.3,0,.7,0,1,0,.5,0,1,0,1.5,0,1.1-.2,2.3-.6,3.4ZM26.1,31.1c-2.7-2.6-7.8-3.6-11.7,0,4,2.3,8.3,2.2,11.7,0ZM13.2,18.3c0,0,0,.1,0,.1.1.7.3,1.4.5,2,.3.6.7,1.2,1.2,1.6.3.2.5.3.8.3,3.1,0,6.1,0,9.2,0,.2,0,.4,0,.6-.2.1,0,.3-.2.4-.3.4-.4.6-.8.8-1.3.3-.7.5-1.5.7-2.2h-14.2Z"/></symbol>
	<symbol id="message-alt" viewBox="0 0 40 40"><path d="M33.1,9.4c1.3,0,1.6.3,1.6,1.6v15.5c0,1.9-.5,2.4-2.4,2.4h-12.6c-.7,0-1.4.3-1.8.9l-3.7,4.8v-3.4c0-1.2-1-2.2-2.2-2.2h-4.4c-1.9,0-2.4-.5-2.4-2.4v-15.5c0-.8,0-1.6,2.4-1.6h25.5M33.1,7.2H7.6c-3.1,0-4.6,1.3-4.6,3.9v15.5c0,3.1,1.5,4.6,4.6,4.6h4.4v5.4c0,.8,0,1.4.4,1.9.3.2.6.3.8.3.4,0,.7-.2,1-.7l5.4-7h12.6c3.1,0,4.6-1.5,4.6-4.6v-15.5c0-2.6-1.3-3.9-3.9-3.9h0Z" /></symbol>
	<symbol id="message" viewBox="0 0 40 40"><path d="M33.1,7.2H7.6c-3.1,0-4.6,1.3-4.6,3.9v15.5c0,3.1,1.5,4.6,4.6,4.6h4.4v5.4c0,.8,0,1.4.4,1.9.3.2.6.3.8.3.4,0,.7-.2,1-.7l5.4-7h12.6c3.1,0,4.6-1.5,4.6-4.6v-15.5c0-2.6-1.3-3.9-3.9-3.9h0Z" /></symbol>
	<symbol id="folder" viewBox="0 0 40 40"><path d="M5,6.7c3.3,0,6.6,0,9.9,0c0,0,0,0,0.1,0c1.3,0.3,1.9,1.1,1.9,2.4c0,0.8,0,1.5,0,2.3c0,0.1,0,0.1,0,0.2c0.1,0,0.2,0,0.3,0 c3.8,0,7.6,0,11.5,0c0.2,0,0.4,0,0.5,0c1.2,0.2,1.9,1.1,1.9,2.3c0,1.5,0,2.9,0,4.4c0,0.1,0,0.2,0,0.3c0.1,0,0.2,0,0.3,0 c1.3,0,2.7,0,4,0c1.1,0,2.1,0,3.2,0c0.8,0,1.2,0.3,1.4,0.9c0,0,0,0.1,0,0.1c-0.1,0.2-0.2,0.5-0.3,0.7c-2.5,3.7-4.9,7.5-7.4,11.2 c-0.2,0.3-0.5,0.5-0.7,0.8c-0.4,0.3-0.9,0.6-1.5,0.7c-0.4,0.1-0.8,0.1-1.2,0.2c-7.9,0-15.7,0-23.6,0c-0.1,0-0.2,0-0.3,0 c-0.3-0.1-0.5-0.1-0.8-0.2C3.4,32.5,3,31.7,3,30.8c0-3.7,0-7.4,0-11.1c0-3.5,0-7.1,0-10.6C3,8,3.6,7.2,4.6,6.8 C4.7,6.8,4.9,6.8,5,6.7z M37.3,20.6c-0.1,0-0.2,0-0.3,0c-2.6,0-5.3,0-7.9,0c-4.7,0-9.4,0-14,0c-0.6,0-1.1,0.2-1.6,0.5 c-0.1,0.1-0.3,0.2-0.4,0.4c-2.2,3.3-4.3,6.5-6.5,9.8c0,0-0.1,0.1-0.1,0.2c0.1,0,0.1,0,0.2,0c7.4,0,14.7,0,22.1,0 c0.2,0,0.5,0,0.7-0.1c0.5-0.2,1-0.4,1.3-0.9c2.1-3.2,4.2-6.4,6.4-9.6C37.2,20.7,37.2,20.7,37.3,20.6z M29.3,18.7c0-0.1,0-0.2,0-0.3 c0-1.4,0-2.8,0-4.2c0-0.5-0.1-0.6-0.6-0.6c-4.4,0-8.9,0-13.3,0c-0.1,0-0.2,0-0.3,0c0-0.1,0-0.2,0-0.3c0-1.4,0-2.8,0-4.1 c0-0.4-0.2-0.6-0.6-0.6c-3,0-6.1,0-9.1,0C5,8.6,4.9,8.7,4.9,9.1c0,7,0,14,0,21c0,0.1,0,0.1,0,0.2C5,30.3,5,30.2,5,30.2 c2.2-3.2,4.3-6.5,6.5-9.8c0.3-0.4,0.6-0.7,0.9-0.9c0.8-0.5,1.7-0.8,2.6-0.8c4.6,0,9.3,0,13.9,0C29.1,18.7,29.2,18.7,29.3,18.7z"/></symbol>
	<symbol id="wifi" viewBox="0 0 40 40"><path d="M37.3,17.3C32.4,12.4,26.7,9.7,20,9.7c-6.7,0-12.4,2.7-17.3,7.6c-0.9-1-1.8-2-2.7-3c11.6-12,29.3-11.3,40,0 C39.1,15.3,38.2,16.3,37.3,17.3z M34.5,19.6c-0.9,1-1.8,2-2.8,3.1c-3.3-3.4-7.1-5.2-11.7-5.2c-4.6,0-8.5,1.8-11.7,5.2 c-0.9-1-1.8-2-2.8-3C12.7,11.7,25.7,10.4,34.5,19.6z M28.9,25c-0.9,1-1.9,2.1-2.8,3.1c-1.7-1.8-3.7-2.8-6.1-2.8 c-2.4,0-4.4,1-6.1,2.8C13,27.1,12,26,11.1,25C15.7,19.8,23.8,19.5,28.9,25z M20,29.4c1.8,0,3.3,1.6,3.3,3.5c0,1.9-1.5,3.5-3.3,3.5 c-1.8,0-3.3-1.6-3.3-3.5C16.7,31,18.2,29.4,20,29.4z"/></symbol>
	<symbol id="heart" viewBox="0 0 40 40"><path d="M20,12.2s0,0,0,0c.1-.2.2-.5.3-.7,1.5-3.2,3.9-4.6,7.4-4.8,5.5-.2,9.7,4.4,9.2,9.8-.2,2-1,3.7-2.4,5.1l-13.6,15.3c-.5.4-1.6.4-2,0l-13.6-15.3c-1-1.1-1.6-1.9-2-3.4-1.3-4.5.9-9.4,5.4-11.1,2.5-.9,6-.7,8.2.8,1.4,1,2.4,2.5,3,4.1Z" /></symbol>
	<symbol id="user" viewBox="0 0 40 40"><path d="M31.6,36.5H8.4c-1.7,0-3.1-1.4-3.1-3.1v-4.6c0-3.8,1.8-6.9,5.2-9c1.1-0.7,2.4-1.2,3.8-1.6 c-0.8-0.7-1.5-1.5-2-2.4c-0.8-1.3-1.2-2.9-1.2-4.4c0-4.9,4-8.9,8.9-8.9s8.9,4,8.9,8.9c0,1.6-0.4,3.1-1.2,4.4c-0.5,0.9-1.2,1.7-2,2.4 c1.4,0.4,2.7,1,3.8,1.6c3.4,2,5.2,5.1,5.2,9v4.6C34.7,35.1,33.3,36.5,31.6,36.5z"/></symbol>
	<symbol id="telegram" viewBox="0 0 40 40"><path d="M2.3,18.6c9.1-4,15.2-6.6,18.2-7.9c8.7-3.6,10.5-4.2,11.7-4.3 c0.3,0,0.8,0.1,1.2,0.4c0.3,0.3,0.4,0.6,0.4,0.9C34,7.9,34,8.4,34,8.9c-0.5,5-2.5,17-3.5,22.5c-0.4,2.3-1.3,3.1-2.1,3.2 c-1.8,0.2-3.2-1.2-5-2.3c-2.8-1.8-4.3-2.9-7-4.7c-3.1-2-1.1-3.2,0.7-5c0.5-0.5,8.5-7.8,8.6-8.4c0-0.1,0-0.4-0.2-0.5 c-0.2-0.2-0.4-0.1-0.7-0.1c-0.3,0.1-4.7,3-13.2,8.7c-1.3,0.9-2.4,1.3-3.4,1.3c-1.1,0-3.3-0.6-4.9-1.1c-2-0.6-3.5-1-3.4-2.1 C0.1,19.7,0.9,19.2,2.3,18.6z"/></symbol>
	<symbol id="check" viewBox="0 0 40 40"><path d="M38.2,11.5l-20,20c0,0,0,.1-.1.2l-2.4,2.4s0,0-.2.1h-.1c-.1.2-.2.2-.4.2-.2,0-.3,0-.4-.1h-.1c0-.1-.1-.2-.2-.2l-2.4-2.4s0,0-.1-.2L1.8,21.5c-.2-.2-.1-.7.2-1.1l2.4-2.4c.4-.4.9-.5,1.1-.2l9.5,9.5L34.5,7.7c.2-.2.7-.1,1.1.2l2.4,2.4c.4.4.5.9.2,1.1Z" /></symbol>
	<symbol id="star" viewBox="0 0 40 40"><path d="M19.3,1.4c.3-.6,1.2-.6,1.5,0l5.3,11.2,12.3,1.5c.7,0,1,.9.5,1.4l-9,8.5,2.3,12.2c.1.7-.6,1.2-1.2.9l-10.8-6-10.8,6c-.6.3-1.3-.2-1.2-.9l2.3-12.2L1.3,15.5c-.5-.5-.2-1.3.5-1.4l12.3-1.5L19.3,1.4Z" /></symbol>
</svg>
